<?xml version="1.0" encoding="utf-8"?>
<svg xmlns="http://www.w3.org/2000/svg" height="310.916" viewBox="0 0 1363.28 310.916" width="1363.28">
<path d="m282.484 143.349c2.088-1.021 8.565-4.546 17.017-9.281 9.725-5.436 17.759-9.937 17.83-9.99.279-.135 3.79 6.959 4.773 9.592 1.498 4.082 1.939 6.387 1.918 10.47 0 2.832-.127 3.966-.525 5.465-.777 2.899-1.887 5.329-3.555 7.865-1.41 2.084-1.66 2.352-3.12 3.075-7.597 3.783-19.332 4.743-32.138 2.658l-.234-.038c.809-2.438 1.348-5.003 1.348-7.705-.001-4.431-1.264-8.533-3.314-12.111z" fill="#f68d2e"/>
<path d="m261.253 180.005v18.745 19.641h-1.179c-2.626 0-7.958-.534-10.79-1.103-9.126-1.844-15.371-6.267-19.236-13.668l-1.293-2.465.273-2.496c.289-2.735 1.125-6.153 2.153-8.91 1.773-4.767 5.68-11.312 9.813-16.444.748-.928 1.264-1.607 1.576-2.085 4.498 5.329 11.151 8.785 18.683 8.785z" fill="#f68d2e"/>
<path d="m239.957 143.433c-1.96-1.144-8.869-5.071-17.059-9.739-9.662-5.502-17.632-10.049-17.68-10.092-.142-.155 2.154-3.732 4.059-6.283 6.891-9.218 14.755-13.397 24.446-12.903l2.825.145 2.017 1.378c6.7 4.553 13.004 13.247 17.051 23.645.335.877.574 1.409.763 1.821-7.072 1.423-12.963 5.938-16.422 12.028z" fill="#f68d2e"/>
<path d="m261.253 72.265c-45.951 0-83.198 37.244-83.198 83.197 0 45.944 37.247 83.186 83.198 83.186 45.946 0 83.187-37.242 83.187-83.186 0-45.954-37.241-83.197-83.187-83.197zm0 150.877c-37.38 0-67.687-30.308-67.687-67.68 0-37.381 30.307-67.689 67.687-67.689 37.373 0 67.682 30.308 67.682 67.689 0 37.372-30.31 67.68-67.682 67.68z" fill="#8c8c8c"/>
<path d="m278.29 155.462c0 9.41-7.627 17.037-17.037 17.037-9.419 0-17.047-7.627-17.047-17.037 0-9.419 7.628-17.046 17.047-17.046 9.409 0 17.037 7.627 17.037 17.046z" fill="#8c8c8c"/>
<g fill="#030104">
<path d="m302.653 108.907c-3.587-2.795-14.533-9.311-18.462-11.002-3.12-1.37-9.874-3.83-10.187-3.744-.1.03.158.257.586.502 2.542 1.477 10.372 6.782 12.767 8.747 3.96 3.174 9.739 8.816 12.915 12.556 1.679 1.994 6.302 8.166 8.321 11.029l8.243-4.575c-4.341-5.093-8.817-9.34-14.183-13.513z"/>
<path d="m278.45 120.762c-4.873-2.572-11.379-5.293-12.143-5.109-.091.037 1.881 1.355 4.386 2.899 5.413 3.304 9.769 6.928 14.068 11.647 1.949 2.133 4.225 4.964 5.648 6.914l5.894-3.281c-4.741-4.941-10.686-9.303-17.853-13.07z"/>
<path d="m281.976 212.475c4.172-1.782 15.157-8.231 18.538-10.863 2.701-2.064 8.121-6.805 8.19-7.109.025-.101-.301.014-.719.257-2.523 1.521-10.949 5.817-13.818 6.973-4.7 1.943-12.423 4.281-17.229 5.277-2.558.488-10.202 1.574-13.68 1.965l.042 9.416c6.557-1.342 12.43-3.214 18.676-5.916z"/>
<path d="m283.254 185.572c4.605-3.033 10.117-7.432 10.328-8.185.025-.1-2.099.995-4.665 2.452-5.491 3.136-10.772 5.214-16.979 6.712-2.807.671-6.379 1.31-8.768 1.615l.023 6.737c6.609-1.773 13.293-4.878 20.061-9.331z"/>
<path d="m200.289 144.3c-.599 4.5-.648 17.243-.108 21.486.404 3.386 1.722 10.458 1.941 10.67.085.076.15-.265.143-.752-.019-2.946.588-12.378 1.044-15.439.738-5.032 2.665-12.875 4.264-17.494.874-2.46 3.846-9.586 5.281-12.783l-8.127-4.767c-2.192 6.321-3.572 12.333-4.438 19.079z"/>
<path d="m222.782 159.129c.258 5.49 1.226 12.495 1.777 13.044.074.076.205-2.307.258-5.255.109-6.326 1.021-11.929 2.894-18.027.858-2.757 2.13-6.158 3.082-8.372l-5.81-3.421c-1.842 6.601-2.585 13.94-2.201 22.031z"/>
</g>
<path d="m1350.437 228.557h-47.311l-22.245-56.238-14.015 56.238h-37.996l36.453-146.201h59.139c8.14 0 14.96 1.188 20.417 3.581 5.494 2.405 9.69 5.664 12.593 9.797 2.905 4.137 4.701 8.931 5.366 14.353.628 5.427.19 11.25-1.356 17.451-2.779 11.116-7.705 20.135-14.804 27.054-7.103 6.903-16.155 11.591-27.268 14.052zm-63.404-80.854h7.165c7.51 0 13.63-1.545 18.432-4.656 4.76-3.108 7.887-7.565 9.341-13.378 1.448-5.824.535-10.28-2.685-13.389-3.25-3.093-8.583-4.648-16.096-4.648h-7.163z" fill="#8c8c8c"/>
<path d="m0 227.72 36.153-145.002h37.683l47.507 88.648 22.105-88.648h37.512l-36.15 145.002h-37.514l-47.512-88.649-22.099 88.649z" fill="#f68d2e"/>
<path d="m462.681 227.72h-46.919l-22.068-55.776-13.894 55.776h-37.685l36.153-145.002h58.653c8.075 0 14.822 1.179 20.25 3.551 5.433 2.386 9.611 5.618 12.497 9.717 2.872 4.103 4.648 8.858 5.299 14.235.639 5.382.185 11.158-1.346 17.308-2.756 11.025-7.639 19.97-14.671 26.832-7.029 6.846-16.033 11.495-27.03 13.936zm-62.897-80.191h7.12c7.435 0 13.522-1.531 18.265-4.617 4.739-3.083 7.832-7.503 9.261-13.269 1.442-5.777.559-10.196-2.645-13.281-3.215-3.066-8.53-4.608-15.961-4.608h-7.121z" fill="#f68d2e"/>
<path d="m468.899 227.72 60.77-145.002h37.312l9.75 77.307 48.121-77.307h37.313l-11.535 145.002h-37.499l8.296-83.463-55.029 83.463h-14.991l-11.705-83.463-33.304 83.463z" fill="#f68d2e"/>
<path d="m764.928 202.523h-53.852l-14.929 25.197h-40.188l91.343-145.002h41.139l19.062 145.002h-40.189zm-2.867-28.654-4.882-48.272-28.961 48.272z" fill="#f68d2e"/>
<path d="m886.095 82.718-28.2 113.083h45.2l-7.952 31.92h-82.884l36.151-145.003z" fill="#8c8c8c"/>
<path d="m974.719 82.718-36.15 145.002h-37.687l36.153-145.002z" fill="#8c8c8c"/>
<path d="m1015.175 195.8h60.755l-7.953 31.92h-124.039l96.844-113.086h-57.094l7.95-31.916h120.005z" fill="#8c8c8c"/>
<path d="m990.823 28.326c2.036-1.651.922-4.962-1.706-5.047l-20.269-.643c-1.136-.045-2.154-.767-2.562-1.853l-7.198-18.955c-.41-1.148-1.412-1.683-2.444-1.768-.06 0-.124-.061-.187-.061-1.141.021-2.236.633-2.661 1.877l-6.854 19.077c-.406 1.057-1.425 1.822-2.533 1.869l-20.283.972c-2.631.109-3.693 3.436-1.626 5.064l16.039 12.449c.926.682 1.327 1.861.988 2.965l-5.322 19.569c-.689 2.52 2.126 4.561 4.321 3.083l16.776-11.384c.403-.282.874-.377 1.342-.431.628-.062 1.256.038 1.816.392l16.948 11.143c2.177 1.431 4.992-.636 4.305-3.154l-5.666-19.499c-.346-1.096.033-2.262.941-2.997z" fill="#f68d2e"/>
<path d="m1226.236 94.245c-.457-.574-.943-1.073-1.42-1.641-9.75-11.874-22.619-18.817-38.568-20.796-3.193-.396-6.463-.649-9.867-.649-3.482 0-6.832.253-10.182.649-17.615 2.075-33.822 9.559-48.57 22.572-8.74 7.716-15.686 16.221-20.828 25.484-5.178 9.368-8.539 19.533-10.029 30.453-3.008 21.795 2.094 40.362 15.357 55.669 13.244 15.292 30.66 22.952 52.268 22.952 20.641 0 39.053-7.882 55.217-23.661l-31.551-19.732c-5.836 3.211-12.018 4.8-18.619 4.8-7.121 0-13.656-2.302-19.547-6.91-5.926-4.608-9.947-10.102-11.996-16.485h107.34c.963-2.268 2.365-7.8 4.229-16.632 3.026-21.948-1.378-40.67-13.234-56.073zm-93.806 39.733c7.699-16.144 20.648-24.235 38.863-24.235 7.701 0 13.953 2.166 18.746 6.486 4.797 4.31 7.824 10.251 9.158 17.749z" fill="#8c8c8c"/>
</svg>
